<?xml version="1.0" encoding="utf-8"?>
<!-- Generator: Adobe Illustrator 16.0.1, SVG Export Plug-In . SVG Version: 6.00 Build 0)  -->
<!DOCTYPE svg PUBLIC "-//W3C//DTD SVG 1.1//EN" "http://www.w3.org/Graphics/SVG/1.1/DTD/svg11.dtd">
<svg version="1.1" id="Layer_1" xmlns="http://www.w3.org/2000/svg" xmlns:xlink="http://www.w3.org/1999/xlink" x="0px" y="0px"
	 width="200px" height="200px" viewBox="0 0 200 200" enable-background="new 0 0 200 200" xml:space="preserve">
<path fill="#333333" d="M180,190c0,5.523-4.477,10-10,10H30c-5.523,0-10-4.477-10-10V10c0-5.523,4.477-10,10-10h140
	c5.523,0,10,4.477,10,10V190z"/>
<g>
	<path fill="#FFFFFF" d="M79.071,77.003c-1.245-2.386-3.515-3.581-6.809-3.581c-1.815,0-3.312,0.489-4.488,1.463
		c-1.178,0.977-2.103,2.557-2.774,4.74c-0.673,2.188-1.144,5.044-1.412,8.574c-0.27,3.531-0.403,7.852-0.403,12.961
		c0,5.447,0.185,9.852,0.556,13.213c0.368,3.363,0.94,5.969,1.714,7.818c0.772,1.85,1.748,3.094,2.926,3.731
		c1.175,0.64,2.537,0.957,4.085,0.957c1.276,0,2.471-0.217,3.58-0.653c1.109-0.438,2.068-1.312,2.875-2.623
		c0.807-1.312,1.445-3.16,1.916-5.547c0.47-2.388,0.707-5.531,0.707-9.433h14.524c0,3.899-0.303,7.599-0.908,11.097
		c-0.605,3.495-1.731,6.555-3.379,9.178c-1.648,2.623-3.969,4.676-6.96,6.151c-2.992,1.479-6.876,2.22-11.649,2.22
		c-5.447,0-9.784-0.873-13.012-2.621c-3.229-1.748-5.699-4.271-7.414-7.564s-2.824-7.229-3.328-11.803
		c-0.505-4.57-0.757-9.613-0.757-15.131c0-5.445,0.252-10.471,0.757-15.078c0.504-4.605,1.613-8.557,3.328-11.852
		c1.715-3.294,4.186-5.866,7.414-7.717c3.228-1.849,7.564-2.773,13.012-2.773c5.177,0,9.262,0.842,12.255,2.521
		c2.991,1.682,5.228,3.817,6.707,6.405c1.479,2.589,2.404,5.381,2.774,8.372c0.369,2.992,0.555,5.799,0.555,8.422H80.938
		C80.938,83.207,80.314,79.391,79.071,77.003z"/>
	<path fill="#FFFFFF" d="M125.316,117.4h0.303l10.691-53.258h15.028l-16.541,72.02h-18.661l-16.542-72.02h15.534L125.316,117.4z"/>
</g>
</svg>
