<?xml version="1.0" encoding="utf-8"?>
<!-- Generator: Adobe Illustrator 16.0.1, SVG Export Plug-In . SVG Version: 6.00 Build 0)  -->
<!DOCTYPE svg PUBLIC "-//W3C//DTD SVG 1.1//EN" "http://www.w3.org/Graphics/SVG/1.1/DTD/svg11.dtd">
<svg version="1.1" id="Layer_1" xmlns="http://www.w3.org/2000/svg" xmlns:xlink="http://www.w3.org/1999/xlink" x="0px" y="0px"
	 width="200px" height="200px" viewBox="-43.307 -43.307 200 200" enable-background="new -43.307 -43.307 200 200"
	 xml:space="preserve">
<g>
	<g>
		<defs>
			<rect id="SVGID_1_" x="-43.307" y="-43.307" width="200" height="200"/>
		</defs>
		<clipPath id="SVGID_2_">
			<use xlink:href="#SVGID_1_"  overflow="visible"/>
		</clipPath>
		<path clip-path="url(#SVGID_2_)" fill="#333333" d="M133.322,41.154h-17.383c1.268,4.917,2.016,10.053,2.016,15.364
			c0,33.933-27.502,61.436-61.429,61.436c-33.927,0-61.433-27.503-61.433-61.436c0-5.311,0.751-10.447,2.017-15.364h-17.382v84.478
			c0,4.235,3.438,7.673,7.686,7.673h138.221c4.248,0,7.688-3.436,7.688-7.673V41.154z M133.322-12.596
			c0-4.239-3.439-7.678-7.688-7.678h-23.033c-4.242,0-7.68,3.439-7.68,7.678v23.042c0,4.239,3.436,7.679,7.68,7.679h23.033
			c4.248,0,7.688-3.44,7.688-7.679V-12.596z M56.524,18.125c-21.208,0-38.399,17.186-38.399,38.394
			c0,21.202,17.189,38.401,38.399,38.401c21.204,0,38.399-17.199,38.399-38.401C94.922,35.311,77.728,18.125,56.524,18.125
			 M133.322,156.351H-20.274c-12.719,0-23.034-10.316-23.034-23.046V-20.274c0-12.722,10.314-23.033,23.034-23.033h153.596
			c12.723,0,23.033,10.312,23.033,23.033v153.579C156.353,146.035,146.045,156.351,133.322,156.351"/>
	</g>
</g>
</svg>
