<?xml version="1.0" encoding="utf-8"?>
<!-- Generator: Adobe Illustrator 16.0.1, SVG Export Plug-In . SVG Version: 6.00 Build 0)  -->
<!DOCTYPE svg PUBLIC "-//W3C//DTD SVG 1.1//EN" "http://www.w3.org/Graphics/SVG/1.1/DTD/svg11.dtd">
<svg version="1.1" id="Layer_1" xmlns="http://www.w3.org/2000/svg" xmlns:xlink="http://www.w3.org/1999/xlink" x="0px" y="0px"
	 width="200px" height="200px" viewBox="-70.014 -79.066 200 200" enable-background="new -70.014 -79.066 200 200"
	 xml:space="preserve">
<path fill="#333333" d="M31.073,33.967c7.287-25.185,14.719-50.326,21.707-75.591c1.498-5.444,3.736-7.374,9.521-7.262
	c20.268,0.381,40.547,0.146,60.82,0.146c2.182,0,4.371,0,6.877,0c0,6.401,0,12.111,0,18.8c-3.789,0-7.512-0.11-11.219,0.023
	c-5.381,0.194-8.232,3.209-8.252,8.492c-0.07,28.288-0.064,56.584-0.01,84.878c0.01,6.059,3.406,8.848,9.322,8.826
	c3.285-0.01,6.568,0,10.16,0c0,6.333,0,12.04,0,18.237c-25.256,0-50.514,0-76.172,0c0-5.924,0-11.835,0-17.716
	c16.533-1.901,16.533-1.901,16.533-18.872c0-22.287,0-44.561,0-66.838c0-2.151,0-4.307,0-6.458c-0.42-0.057-0.846-0.114-1.27-0.174
	C58.624,17.11,48.165,53.759,37.611,90.678c-10.302,0-20.491,0-31.247,0C-4.093,53.205-14.574,15.646-25.059-21.916
	c-0.34,0.02-0.678,0.041-1.01,0.057c-0.095,2.047-0.268,4.093-0.268,6.137c-0.022,24.95-0.017,49.899-0.01,74.852
	c0,11.782,1.065,12.856,12.925,13.164c1.092,0.029,2.186,0.201,3.606,0.331c0,6.054,0,11.975,0,18.133c-20.163,0-39.929,0-60.183,0
	c0-6.022,0-11.872,0-18.476c3.371,0,6.639,0.05,9.912-0.006c7.844-0.137,10.062-2.222,10.078-9.808
	c0.042-27.628,0.049-55.252-0.01-82.876c-0.013-7.358-2.078-9.326-9.651-9.583c-3.3-0.114-6.609-0.02-10.361-0.02
	c0-6.285,0-11.958,0-18.376c2.085-0.116,4.205-0.333,6.328-0.337c21.166-0.026,42.329,0.148,63.489-0.138
	c5.007-0.065,6.71,1.626,7.987,6.365C14.071-19.1,20.85,4.166,27.478,27.472c0.639,2.255,1.463,4.464,2.198,6.698
	C30.142,34.098,30.607,34.039,31.073,33.967z"/>
</svg>
