<?xml version="1.0" encoding="utf-8"?>
<!-- Generator: Adobe Illustrator 16.0.1, SVG Export Plug-In . SVG Version: 6.00 Build 0)  -->
<!DOCTYPE svg PUBLIC "-//W3C//DTD SVG 1.1//EN" "http://www.w3.org/Graphics/SVG/1.1/DTD/svg11.dtd">
<svg version="1.1" id="Layer_1" xmlns="http://www.w3.org/2000/svg" xmlns:xlink="http://www.w3.org/1999/xlink" x="0px" y="0px"
	 width="200px" height="200px" viewBox="36.695 11.089 200 200" enable-background="new 36.695 11.089 200 200"
	 xml:space="preserve">
<path fill="#333333" d="M236.528,49.166c-7.348,3.257-15.242,5.46-23.529,6.45c8.457-5.07,14.955-13.098,18.012-22.663
	c-7.914,4.694-16.682,8.103-26.012,9.941c-7.473-7.962-18.119-12.937-29.9-12.937c-22.625,0-40.965,18.34-40.965,40.963
	c0,3.209,0.362,6.336,1.061,9.334c-34.045-1.708-64.228-18.017-84.433-42.8c-3.525,6.05-5.545,13.087-5.545,20.594
	c0,14.212,7.231,26.75,18.224,34.096c-6.715-0.212-13.032-2.055-18.554-5.124c-0.003,0.171-0.003,0.343-0.003,0.514
	c0,19.848,14.12,36.404,32.86,40.168c-3.438,0.936-7.056,1.438-10.792,1.438c-2.64,0-5.207-0.258-7.708-0.734
	c5.213,16.272,20.341,28.117,38.266,28.448c-14.019,10.986-31.682,17.533-50.874,17.533c-3.306,0-6.567-0.193-9.772-0.57
	c18.129,11.621,39.662,18.403,62.794,18.403c75.347,0,116.548-62.42,116.548-116.55c0-1.776-0.041-3.543-0.117-5.299
	C224.089,64.595,231.034,57.381,236.528,49.166z"/>
</svg>
